<?xml version="1.0" standalone="no"?>
<!DOCTYPE svg PUBLIC "-//W3C//DTD SVG 20010904//EN"
 "http://www.w3.org/TR/2001/REC-SVG-20010904/DTD/svg10.dtd">
<svg version="1.0" xmlns="http://www.w3.org/2000/svg"
 width="260.000000pt" height="260.000000pt" viewBox="0 0 260.000000 260.000000"
 preserveAspectRatio="xMidYMid meet">
<metadata>
Created by potrace 1.11, written by Peter Selinger 2001-2013
</metadata>
<g transform="translate(0.000000,260.000000) scale(0.100000,-0.100000)"
fill="#000000" stroke="none">
<path d="M1005 2334 l-170 -185 -61 -245 -62 -244 234 -150 c129 -83 239 -148
244 -145 6 4 33 40 60 81 28 41 52 74 54 74 2 0 27 -36 56 -80 29 -45 58 -80
65 -78 32 8 464 295 464 308 0 8 -28 122 -62 252 l-62 237 -169 182 c-94 100
-171 178 -173 173 -2 -5 42 -111 96 -235 l100 -227 17 -147 17 -147 -109 -109
c-60 -60 -111 -109 -115 -109 -3 0 -26 28 -49 63 -24 34 -51 72 -61 85 l-17
23 -59 -85 c-32 -47 -61 -84 -64 -83 -4 1 -56 50 -117 108 l-110 106 18 149
19 149 100 229 c56 126 101 231 101 233 0 15 -38 -22 -185 -183z"/>
<path d="M813 2300 l-160 -130 -78 -269 c-42 -148 -75 -276 -72 -283 2 -8 93
-76 201 -153 107 -77 196 -143 196 -146 0 -4 -90 -71 -200 -150 -110 -79 -200
-148 -200 -154 0 -5 35 -131 77 -279 l78 -269 153 -124 c222 -180 233 -179 76
10 l-106 128 -43 157 c-24 86 -54 198 -68 249 l-25 91 255 168 c140 92 251
170 246 174 -4 4 -120 83 -256 175 -149 100 -246 172 -244 179 3 7 34 118 68
247 l63 234 96 115 c125 151 122 147 112 154 -5 3 -81 -53 -169 -124z"/>
<path d="M1606 2422 c-3 -5 43 -67 102 -138 l108 -129 63 -234 c34 -129 65
-240 68 -247 2 -7 -95 -79 -246 -180 -138 -93 -251 -172 -251 -177 0 -4 113
-82 251 -174 137 -91 248 -171 246 -177 -2 -6 -32 -117 -67 -246 l-64 -235
-94 -115 c-53 -63 -102 -122 -109 -132 -8 -9 -10 -19 -5 -22 5 -3 81 52 169
123 l159 129 77 265 c42 146 77 272 77 280 0 9 -88 79 -200 159 -110 79 -200
145 -200 148 0 3 89 68 196 145 108 77 199 145 201 153 3 7 -29 134 -72 283
l-78 269 -151 122 c-83 67 -156 125 -163 130 -6 5 -14 5 -17 0z"/>
<path d="M934 1128 l-231 -150 62 -249 62 -248 179 -193 c98 -106 179 -195
181 -197 2 -2 6 -2 9 1 3 4 -42 115 -101 249 -105 240 -106 244 -120 363 -8
67 -17 133 -19 148 -5 23 9 39 108 132 l114 106 58 -85 c32 -47 61 -85 66 -85
4 0 33 38 64 85 l57 85 56 -49 c31 -27 82 -76 113 -108 l57 -58 -19 -150 -19
-150 -106 -239 c-58 -132 -102 -242 -99 -245 3 -3 18 8 32 25 15 17 97 107
182 199 l155 167 62 247 c34 135 59 249 55 252 -18 17 -463 299 -471 299 -5 0
-34 -36 -64 -81 l-55 -81 -57 81 c-31 45 -62 81 -68 80 -7 -1 -116 -69 -243
-151z"/>
</g>
</svg>
